<?xml version="1.0" standalone="no"?>
<!DOCTYPE svg PUBLIC "-//W3C//DTD SVG 20010904//EN"
 "http://www.w3.org/TR/2001/REC-SVG-20010904/DTD/svg10.dtd">
<svg version="1.0" xmlns="http://www.w3.org/2000/svg"
 width="202.000000pt" height="249.000000pt" viewBox="0 0 202.000000 249.000000"
 preserveAspectRatio="xMidYMid meet">
<metadata>
Created by potrace 1.16, written by Peter Selinger 2001-2019
</metadata>
<g transform="translate(0.000000,249.000000) scale(0.100000,-0.100000)"
fill="#e2e8f0d6" stroke="none">
<path d="M730 2483 c-77 -31 -109 -93 -110 -215 l0 -88 -243 0 c-232 0 -245
-1 -287 -22 -66 -34 -84 -72 -88 -188 -7 -156 26 -225 116 -250 l42 -11 2
-742 3 -742 27 -51 c32 -60 93 -118 157 -148 45 -21 54 -21 661 -21 607 0 616
0 661 21 64 30 125 88 157 148 l27 51 3 742 2 742 42 11 c90 25 123 94 116
250 -4 116 -22 154 -88 188 -42 21 -55 22 -287 22 l-243 0 0 88 c0 103 -20
157 -71 193 -34 24 -36 24 -309 26 -151 1 -282 -1 -290 -4z m459 -154 c40 -14
51 -35 51 -98 l0 -51 -230 0 -230 0 0 49 c0 65 7 81 44 97 39 17 318 19 365 3z
m651 -329 c27 -27 26 -77 -2 -107 l-21 -23 -806 0 -805 0 -23 22 c-29 27 -31
80 -3 108 20 20 33 20 830 20 797 0 810 0 830 -20z m-132 -1014 c-3 -717 -3
-725 -24 -753 -11 -15 -36 -38 -54 -50 l-33 -23 -587 0 -587 0 -33 23 c-18 12
-43 35 -54 50 -21 28 -21 36 -24 753 l-2 724 700 0 700 0 -2 -724z"/>
<path d="M572 1377 c-22 -23 -22 -24 -22 -519 0 -467 1 -497 18 -519 27 -33
78 -30 109 5 l23 27 0 490 0 490 -25 24 c-31 32 -74 33 -103 2z"/>
<path d="M960 1380 c-11 -11 -22 -30 -25 -42 -3 -13 -4 -238 -3 -500 3 -476 3
-478 25 -499 13 -14 34 -22 53 -22 19 0 40 8 53 22 22 21 22 23 25 499 1 262
0 487 -3 500 -8 35 -42 62 -75 62 -17 0 -39 -9 -50 -20z"/>
<path d="M1345 1375 l-25 -24 0 -490 0 -490 23 -27 c31 -35 82 -38 109 -5 17
22 18 52 18 520 l0 498 -23 21 c-31 29 -72 28 -102 -3z"/>
</g>
</svg>
